<svg width="64" height="65" viewBox="0 0 64 65" fill="none" xmlns="http://www.w3.org/2000/svg">
<path d="M0 16.5C0 7.66344 7.16344 0.5 16 0.5H48C56.8366 0.5 64 7.66344 64 16.5V48.5C64 57.3366 56.8366 64.5 48 64.5H16C7.16344 64.5 0 57.3366 0 48.5V16.5Z" fill="#FA822C"/>
<path d="M0 16.5C0 7.66344 7.16344 0.5 16 0.5H48C56.8366 0.5 64 7.66344 64 16.5V48.5C64 57.3366 56.8366 64.5 48 64.5H16C7.16344 64.5 0 57.3366 0 48.5V16.5Z" fill="#282A2C"/>
<path d="M31.6667 19.3166L43.3334 22.8666V34.1833C43.3334 39.0499 37.4501 45.8499 31.6667 45.8499C25.8834 45.8499 20.0001 39.0666 20.0001 34.1833V22.8666L31.6667 19.3166ZM31.6667 15.8333L16.6667 20.3999V34.1833C16.6667 41.0333 24.1501 49.1833 31.6667 49.1833C39.1834 49.1833 46.6667 41.0499 46.6667 34.1833V20.3999L31.6667 15.8333Z" fill="white"/>
<path opacity="0.5" d="M31.6667 47.8V32.5H19.6167C19.6167 32.5 17.1334 43.5167 31.6667 47.8Z" fill="white"/>
<path opacity="0.5" d="M31.6667 18.5833V32.4999H45.3668V22.5666L31.6667 18.5833Z" fill="white"/>
</svg>
